<?xml version="1.0" standalone="no"?>
<!DOCTYPE svg PUBLIC "-//W3C//DTD SVG 20010904//EN"
 "http://www.w3.org/TR/2001/REC-SVG-20010904/DTD/svg10.dtd">
<svg version="1.0" xmlns="http://www.w3.org/2000/svg"
 width="260.000000pt" height="260.000000pt" viewBox="0 0 260.000000 260.000000"
 preserveAspectRatio="xMidYMid meet">
<metadata>
Created by potrace 1.14, written by Peter Selinger 2001-2017
</metadata>
<g transform="translate(0.000000,260.000000) scale(0.100000,-0.100000)"
fill="#000000" stroke="none">
<path d="M1240 2251 c-202 -45 -403 -163 -547 -321 -29 -32 -65 -61 -79 -64
-24 -6 -100 -58 -115 -79 -3 -4 -48 11 -100 34 -106 46 -225 89 -251 89 -20 0
-38 -29 -38 -62 0 -28 60 -210 89 -271 18 -37 84 -192 121 -286 8 -20 10 -36
4 -38 -5 -2 -25 -11 -44 -21 -80 -39 -35 -128 162 -317 68 -66 144 -149 168
-185 60 -90 200 -228 289 -285 86 -56 195 -104 296 -131 56 -15 105 -19 240
-19 198 0 276 17 405 87 280 153 449 348 533 613 68 216 60 427 -24 645 -38
99 -54 104 -45 15 23 -226 -119 -456 -331 -535 -85 -32 -179 -43 -259 -30 -38
6 -73 15 -78 21 -6 6 -1 27 13 56 31 63 61 151 61 178 0 13 -13 29 -38 45
l-37 24 8 90 c4 50 9 205 10 345 l2 255 35 9 c36 9 193 4 244 -9 22 -5 28 -4
25 7 -7 22 -185 106 -274 130 -116 31 -329 36 -445 10z m199 -311 c-62 -66
-114 -118 -116 -116 -18 17 107 163 176 208 25 15 47 28 49 28 2 0 -47 -54
-109 -120z m174 48 c12 -6 17 -21 17 -50 0 -31 -3 -38 -12 -30 -7 5 -39 18
-70 28 l-57 17 22 28 c18 23 27 27 52 22 17 -3 38 -9 48 -15z m-75 -168 l82
-22 0 -44 c0 -24 -2 -44 -4 -44 -2 0 -44 13 -93 29 -49 16 -110 32 -136 36
-26 4 -47 9 -47 12 0 3 10 18 23 34 26 34 44 34 175 -1z m-882 -60 c6 -44 9
-80 7 -80 -1 0 -23 12 -48 27 -40 25 -45 32 -45 63 0 28 6 39 28 52 15 10 32
18 38 18 7 0 15 -33 20 -80z m-220 2 c59 -36 105 -81 174 -172 19 -25 45 -56
57 -70 13 -14 23 -28 23 -31 0 -4 25 -39 55 -78 58 -75 65 -95 39 -105 -27
-10 -31 -7 -71 46 -21 29 -56 73 -78 99 -22 25 -49 57 -60 70 -57 69 -180 215
-185 219 -3 3 -21 25 -40 49 l-34 43 30 -16 c16 -9 56 -34 90 -54z m-173 -82
c119 -125 182 -196 212 -235 17 -21 44 -54 61 -72 17 -18 44 -51 60 -74 27
-40 28 -42 9 -55 -10 -8 -24 -14 -31 -14 -6 0 -56 48 -110 107 -55 59 -127
138 -162 174 -56 59 -66 77 -102 175 -30 85 -34 103 -19 84 12 -14 49 -54 82
-90z m629 38 c98 -70 103 -94 28 -125 l-50 -21 -1 26 c0 15 -4 53 -8 85 -4 31
-6 57 -4 57 2 0 18 -10 35 -22z m533 -78 c61 -15 127 -35 147 -44 31 -13 36
-20 33 -43 -2 -16 -4 -36 -4 -45 -1 -16 -4 -16 -43 -2 -24 9 -119 35 -211 59
-92 23 -170 45 -173 48 -3 3 7 19 23 36 25 28 32 30 73 25 25 -3 95 -19 155
-34z m-650 -53 c28 -25 48 -47 45 -50 -3 -3 -34 22 -70 55 -36 33 -56 55 -45
49 11 -5 43 -30 70 -54z m280 -32 c41 -41 29 -49 -22 -14 -27 18 -50 34 -52
36 -2 1 7 3 22 3 15 0 37 -11 52 -25z m-118 -89 c174 -107 179 -112 175 -151
-2 -19 -7 -35 -11 -35 -9 0 -209 119 -246 147 -23 17 -25 21 -14 51 6 17 14
32 18 32 4 0 39 -20 78 -44z m371 -21 c75 -20 146 -38 157 -40 11 -3 46 -15
78 -27 53 -21 57 -25 57 -55 0 -22 -5 -33 -15 -33 -8 0 -102 29 -209 65 -107
36 -201 65 -210 65 -9 0 -16 6 -16 13 0 6 -3 23 -7 36 -5 20 -3 23 11 18 9 -4
79 -23 154 -42z m372 -109 c0 -19 -9 -24 -31 -19 -18 5 -26 33 -13 46 10 9 44
-12 44 -27z m-779 -62 c8 -8 40 -27 70 -44 l54 -30 -45 0 c-54 0 -103 27 -125
69 -8 17 -15 33 -15 36 0 7 40 -13 61 -31z m563 -9 c107 -13 166 -30 166 -46
0 -4 -5 -19 -11 -32 l-11 -24 -96 39 c-54 22 -124 48 -157 59 -86 29 -87 38
-4 22 40 -7 91 -15 113 -18z m-1030 -84 c-4 -3 -9 0 -11 7 -3 6 -9 12 -14 12
-6 0 -7 -5 -3 -12 4 -7 3 -8 -5 -4 -6 4 -18 21 -27 38 l-16 30 41 -33 c23 -18
38 -35 35 -38z m374 38 c30 -28 42 -62 24 -73 -4 -2 -29 16 -56 41 -36 34 -44
48 -34 54 21 14 31 11 66 -22z m404 1 c82 -23 294 -113 346 -148 21 -14 -12
-74 -35 -65 -10 4 -103 50 -208 103 -166 84 -190 99 -181 114 6 9 16 14 23 12
6 -3 31 -10 55 -16z m-877 -61 c63 -52 182 -158 257 -228 32 -30 68 -61 82
-70 23 -15 23 -17 9 -46 -9 -17 -17 -31 -18 -33 -10 -11 -137 88 -236 183 -92
88 -187 235 -151 235 4 0 30 -18 57 -41z m310 -13 c22 -17 62 -52 89 -77 l48
-46 -16 -31 c-9 -18 -18 -32 -21 -32 -5 0 -189 161 -220 193 -11 11 -15 17
-10 14 6 -3 24 1 40 8 34 14 35 13 90 -29z m353 11 l32 0 0 -75 0 -75 -22 19
c-87 74 -98 88 -98 117 0 27 2 29 28 21 15 -4 42 -7 60 -7z m185 -161 c-6 -57
-43 -134 -54 -114 -3 7 0 51 7 98 7 47 13 89 13 94 1 5 10 1 20 -8 17 -15 19
-27 14 -70z m301 -87 c5 -4 -2 -13 -16 -20 -35 -15 -76 5 -153 76 l-60 55 110
-51 c61 -28 114 -55 119 -60z"/>
</g>
</svg>
